<svg xmlns="http://www.w3.org/2000/svg" shape-rendering="geometricPrecision" text-rendering="geometricPrecision" image-rendering="optimizeQuality" fill-rule="evenodd" clip-rule="evenodd" viewBox="0 0 431 512.57"><path fill-rule="nonzero" d="M44.49 34.57h131.66c5.87 0 10.65 4.78 10.65 10.65v406.75c0 2.94-1.2 5.6-3.13 7.53a10.596 10.596 0 0 1-7.52 3.13H44.49c-2.92 0-5.58-1.2-7.51-3.13l-.02-.02c-1.92-1.93-3.12-4.59-3.12-7.51V45.22c0-5.84 4.81-10.65 10.65-10.65zm211.45 109.36h128.01v-16.81H255.94v16.81zm128.01 12.48H255.94v293.74h128.01V156.41zm-128.01-41.77h128.01V97.83H256.21l-.27-.01v16.82zm0-29.29h128.01v-38.3H255.94v38.3zM12.48 484.26h196.78V12.48H12.48v471.78zm209.26 0h196.78V12.48H221.74v471.78zm196.78 12.48H221.74v15.61h-12.48v-15.61H12.48v15.24H0V6.24C0 2.79 2.79 0 6.24 0h418.52C428.2 0 431 2.79 431 6.24v506.33h-12.48v-15.83zm-55.73-255.66c3.39.52 5.71 3.7 5.19 7.09-.52 3.39-3.7 5.71-7.09 5.19-.63-.1-1.25-.12-1.83-.06-.45.05-.87.16-1.23.33-1.36 1.11-2.08 4.61-2.25 8.61-.21 4.7.51 9.6 1.9 12.63.21.44.42.81.63 1.07l.22.28c.44.52.91.97 1.39 1.33.54.41 1.15.75 1.8 1 3.2 1.24 4.8 4.85 3.56 8.05a6.215 6.215 0 0 1-8.04 3.55c-4.74-1.84-8.72-5.45-10.86-10.06-2.18-4.72-3.32-11.85-3.03-18.39.32-7.22 2.45-14.21 6.9-17.79 3.55-2.84 8.34-3.52 12.74-2.83zm-207.22 0c3.39.52 5.71 3.7 5.19 7.09-.52 3.39-3.7 5.71-7.09 5.19-1-.16-2.13-.15-3.07.27-1.35 1.11-2.07 4.61-2.24 8.61-.21 4.7.5 9.6 1.9 12.63.22.48.44.85.63 1.09.5.63 1.04 1.17 1.61 1.59.54.41 1.15.75 1.8 1 3.2 1.24 4.8 4.85 3.56 8.05a6.223 6.223 0 0 1-8.05 3.55c-1.72-.67-3.31-1.56-4.77-2.65a21.628 21.628 0 0 1-3.85-3.74c-.85-1.05-1.6-2.3-2.23-3.67-2.18-4.72-3.32-11.84-3.03-18.39.32-7.22 2.45-14.21 6.89-17.79 3.56-2.84 8.35-3.52 12.75-2.83zm-8.38-33.56c5.52 0 9.99 4.47 9.99 9.99 0 5.52-4.47 9.99-9.99 9.99-5.51 0-9.98-4.47-9.98-9.99 0-5.52 4.47-9.99 9.98-9.99zm208.46 0c5.52 0 9.99 4.47 9.99 9.99 0 5.52-4.47 9.99-9.99 9.99-5.51 0-9.98-4.47-9.98-9.99 0-5.52 4.47-9.99 9.98-9.99zM46.31 143.93h128.01v-16.81H46.31v16.81zm128.01 12.48H46.31v293.74h128.01V156.41zM46.31 114.64h128.01V97.83H46.31v16.81zm0-29.29h128.01v-38.3H46.31v38.3zm207.8-50.78h131.66c5.84 0 10.66 4.81 10.66 10.65v406.75c0 2.92-1.2 5.58-3.13 7.51l-.02.02c-1.93 1.93-4.59 3.13-7.51 3.13H254.11c-2.93 0-5.59-1.2-7.52-3.13a10.62 10.62 0 0 1-3.13-7.53V45.22c0-5.87 4.78-10.65 10.65-10.65z"/></svg>